<?xml version="1.0" encoding="utf-8"?>
<!-- Generator: Adobe Illustrator 14.0.0, SVG Export Plug-In . SVG Version: 6.00 Build 43363)  -->
<!DOCTYPE svg PUBLIC "-//W3C//DTD SVG 1.1//EN" "http://www.w3.org/Graphics/SVG/1.1/DTD/svg11.dtd">
<svg version="1.1" id="Layer_1" xmlns="http://www.w3.org/2000/svg" xmlns:xlink="http://www.w3.org/1999/xlink" x="0px" y="0px"
	 width="463.642px" height="463.646px" viewBox="0 0 463.642 463.646" enable-background="new 0 0 463.642 463.646"
	 xml:space="preserve">
<g>
	<g>
		<path d="M457.253,400.782c0-13.442-10.896-24.339-24.339-24.339H120.228c-13.442,0-24.339,10.896-24.339,24.339
			c0,2.139,0.281,4.211,0.799,6.187h-0.094l0.246,0.505c0.785,2.744,2.037,5.286,3.668,7.541l13.544,27.843h0.175
			c3.766,8.7,12.424,14.789,22.507,14.789h279.5c10.084,0,18.741-6.089,22.507-14.789h0.348l13.549-27.851
			c1.628-2.252,2.878-4.789,3.662-7.528l0.248-0.51h-0.094C456.973,404.993,457.253,402.921,457.253,400.782z M123.198,411.709
			c-5.43,0-9.832-4.402-9.832-9.832s4.402-9.831,9.832-9.831c5.43,0,9.832,4.401,9.832,9.831S128.628,411.709,123.198,411.709z
			 M175.127,443.349c-9.034,0-16.356-7.323-16.356-16.356c0-9.032,7.323-16.355,16.356-16.355c9.033,0,16.356,7.323,16.356,16.355
			C191.483,436.025,184.16,443.349,175.127,443.349z M244.247,443.349c-9.034,0-16.356-7.323-16.356-16.356
			c0-9.032,7.322-16.355,16.356-16.355c9.033,0,16.356,7.323,16.356,16.355C260.604,436.025,253.28,443.349,244.247,443.349z
			 M313.364,443.349c-9.032,0-16.355-7.323-16.355-16.356c0-9.032,7.323-16.355,16.355-16.355c9.034,0,16.356,7.323,16.356,16.355
			C329.721,436.025,322.398,443.349,313.364,443.349z M382.485,443.349c-9.033,0-16.356-7.323-16.356-16.356
			c0-9.032,7.323-16.355,16.356-16.355c9.032,0,16.355,7.323,16.355,16.355C398.841,436.025,391.518,443.349,382.485,443.349z
			 M430.66,411.709c-5.43,0-9.832-4.402-9.832-9.832s4.402-9.831,9.832-9.831s9.831,4.401,9.831,9.831
			S436.09,411.709,430.66,411.709z M146.291,364.696h262.685c8.591,0,15.606-8.706,15.606-19.083V159.517
			c0-4.405-4.394-7.455-9.79-6.91l-107.479,10.845c-4.834,0.489-9.896,4.282-11.36,8.564l-15.578,45.578l-119.141,23.76
			c-4.853,0.968-9.272,6.021-9.943,11.332l-12.768,101.081C137.761,359.785,141.204,364.696,146.291,364.696z M284.663,295.09
			l34.293-100.336c0.838-2.452,3.737-4.623,6.503-4.902l61.52-6.209c3.088-0.312,5.604,1.434,5.604,3.955v106.518
			c0,5.94-4.017,10.923-8.933,10.923h-94.92C284.593,305.038,282.812,300.508,284.663,295.09z M203.278,280.121l3.439-21.021
			c0.311-1.896,2.365-3.754,4.638-4.153c2.326-0.409,3.979,0.863,3.642,2.845l-3.747,21.955c-0.324,1.9-2.419,3.488-4.632,3.555
			C204.456,283.364,202.98,281.942,203.278,280.121z M189.166,280.783l2.93-19.373c0.263-1.745,2.009-3.431,3.936-3.771
			c1.968-0.346,3.364,0.847,3.079,2.662l-3.169,20.163c-0.274,1.749-2.051,3.207-3.931,3.263
			C190.17,283.78,188.912,282.465,189.166,280.783z M177.062,281.351l2.523-17.965c0.228-1.615,1.728-3.159,3.382-3.45
			c1.688-0.296,2.884,0.821,2.639,2.5l-2.715,18.643c-0.235,1.618-1.762,2.965-3.379,3.013
			C177.927,284.137,176.842,282.912,177.062,281.351z M58.968,307.82c-1.072-0.886-2.498-1.483-3.871-1.698
			c0,0-0.218-0.036-0.602-0.064c-4.026-0.304-7.645,1.363-9.68,4.461c-2.358,3.589-2.172,8.038,0.552,13.223
			c2.619,4.985,6.44,34.185,0.438,55.127c-6.452,22.504-19.661,40.058-29.374,45.765c-3.742,2.2-12.506,7.352-10.646,15.418
			c1.059,4.6,5.396,7.745,11.316,8.208c0.008,0.003,0.014,0.003,0.021,0.003c0.532,0.039,1.068,0.025,1.599-0.045
			c35.718-4.72,60.412-24.838,69.532-56.654C97.291,360.037,87.164,331.078,58.968,307.82z"/>
	</g>
</g>
</svg>
